<svg xmlns="http://www.w3.org/2000/svg" width="974" height="973" fill="none">
<path fill="#000" stroke="#000" stroke-width="15" d="M8.244 7.599h957.89v957.89H8.244z"/>
<path fill="#fff" d="M147.217 411.886v165.902h-16.334V411.886H87.6v-15.563h102.877v15.563h-43.284.024Z"/>
<path fill="#fff" d="M260.203 577.788V482.89c0-3.126-.583-6.043-1.773-8.796-1.19-2.73-2.777-5.134-4.807-7.141-2.03-2.03-4.41-3.616-7.14-4.806-2.753-1.19-5.67-1.773-8.797-1.773h-10.383c-3.127 0-6.043.583-8.797 1.773-2.753 1.19-5.133 2.776-7.14 4.806-2.03 2.031-3.617 4.411-4.807 7.141-1.19 2.753-1.773 5.67-1.773 8.796v94.898h-15.563V396.323h15.563v62.767c3.547-4.223 7.794-7.513 12.787-9.87 4.97-2.357 10.383-3.547 16.193-3.547h3.92c5.227 0 10.174 1.004 14.817 2.964 4.643 1.983 8.68 4.713 12.157 8.166 3.453 3.454 6.183 7.514 8.167 12.157 1.983 4.644 2.963 9.567 2.963 14.817v94.011h-15.587ZM374.715 557.047c-1.983 4.644-4.713 8.681-8.167 12.157-3.453 3.454-7.513 6.184-12.156 8.167-4.644 1.983-9.567 2.963-14.817 2.963h-10.383c-5.227 0-10.174-1.003-14.817-2.963-4.644-1.983-8.68-4.713-12.157-8.167-3.453-3.453-6.183-7.513-8.167-12.157-1.983-4.643-2.963-9.566-2.963-14.816v-58.474c0-5.227.98-10.174 2.963-14.817 1.984-4.643 4.714-8.68 8.167-12.157 3.453-3.453 7.513-6.183 12.157-8.166 4.643-1.984 9.566-2.964 14.817-2.964h10.383c5.227 0 10.173 1.004 14.817 2.964 4.643 1.983 8.68 4.713 12.156 8.166 3.454 3.454 6.184 7.514 8.167 12.157 1.984 4.643 2.964 9.567 2.964 14.817v30.497h-70.981v28.863c0 3.127.583 6.044 1.773 8.797 1.19 2.753 2.777 5.133 4.807 7.14 2.03 2.03 4.41 3.617 7.14 4.807 2.73 1.19 5.67 1.773 8.797 1.773h10.383c3.127 0 6.044-.583 8.797-1.773 2.73-1.19 5.133-2.777 7.14-4.807 2.03-2.03 3.617-4.41 4.807-7.14 1.19-2.73 1.773-5.67 1.773-8.797v-8.61l15.564 2.52v5.18c0 5.227-1.004 10.174-2.964 14.817v.023Zm-12.6-74.153c0-3.127-.583-6.044-1.773-8.797-1.19-2.73-2.777-5.134-4.807-7.14-2.03-2.03-4.41-3.617-7.14-4.807-2.753-1.19-5.67-1.773-8.797-1.773h-10.383c-3.127 0-6.044.583-8.797 1.773-2.753 1.19-5.133 2.777-7.14 4.807-2.03 2.03-3.617 4.41-4.807 7.14-1.19 2.753-1.773 5.67-1.773 8.797v19.226h55.417v-19.226ZM105.068 861.963v-19.694h54.741V652.148l-54.741 23.053v-19.693l54.741-23.054h20.65v209.815h54.74v19.694H105.068ZM369.405 830.769c-2.94 6.836-6.954 12.81-12.087 17.92-5.133 5.11-11.107 9.147-17.92 12.087-6.837 2.94-14.14 4.41-21.934 4.41h-9.753c-7.793 0-15.12-1.47-22.003-4.41-6.884-2.94-12.881-6.954-18.014-12.087-5.11-5.11-9.147-11.107-12.087-17.92-2.94-6.837-4.41-14.14-4.41-21.934V685.611c0-7.793 1.47-15.097 4.41-21.934 2.94-6.836 6.954-12.81 12.087-17.92 5.11-5.11 11.13-9.146 18.014-12.086 6.883-2.94 14.21-4.411 22.003-4.411h9.753c7.794 0 15.097 1.471 21.934 4.411 6.837 2.94 12.81 6.953 17.92 12.086 5.11 5.134 9.147 11.107 12.087 17.92 2.94 6.837 4.41 14.141 4.41 21.934v123.224c0 7.794-1.47 15.097-4.41 21.934Zm-16.24-145.158c0-5.133-.957-9.893-2.87-14.327-1.914-4.433-4.527-8.283-7.84-11.597-3.314-3.313-7.187-5.926-11.597-7.84-4.434-1.913-9.194-2.87-14.327-2.87h-7.84c-5.11 0-9.893.957-14.327 2.87-4.433 1.914-8.33 4.527-11.69 7.84-3.36 3.314-5.997 7.187-7.933 11.597-1.914 4.434-2.87 9.194-2.87 14.327v123.224c0 5.11.956 9.894 2.87 14.327 1.913 4.433 4.55 8.33 7.933 11.69 3.36 3.36 7.257 5.997 11.69 7.933 4.434 1.914 9.194 2.871 14.327 2.871h7.84c5.11 0 9.893-.957 14.327-2.871 4.433-1.913 8.283-4.55 11.597-7.933 3.313-3.36 5.926-7.257 7.84-11.69 1.913-4.433 2.87-9.193 2.87-14.327V685.611ZM517.938 830.769c-2.94 6.836-6.953 12.81-12.087 17.92-5.133 5.11-11.106 9.147-17.92 12.087-6.837 2.94-14.14 4.41-21.933 4.41h-9.754c-7.793 0-15.12-1.47-22.003-4.41-6.884-2.94-12.88-6.954-18.014-12.087-5.11-5.11-9.146-11.107-12.086-17.92-2.941-6.837-4.411-14.14-4.411-21.934V685.611c0-7.793 1.47-15.097 4.411-21.934 2.94-6.836 6.953-12.81 12.086-17.92 5.11-5.11 11.13-9.146 18.014-12.086 6.883-2.94 14.21-4.411 22.003-4.411h9.754c7.793 0 15.096 1.471 21.933 4.411 6.837 2.94 12.81 6.953 17.92 12.086 5.11 5.134 9.147 11.107 12.087 17.92 2.94 6.837 4.41 14.141 4.41 21.934v123.224c0 7.794-1.47 15.097-4.41 21.934Zm-16.24-145.158c0-5.133-.957-9.893-2.87-14.327-1.913-4.433-4.527-8.283-7.84-11.597-3.314-3.313-7.187-5.926-11.597-7.84-4.433-1.913-9.193-2.87-14.327-2.87h-7.84c-5.11 0-9.893.957-14.327 2.87-4.433 1.914-8.33 4.527-11.69 7.84-3.36 3.314-5.996 7.187-7.933 11.597-1.913 4.434-2.87 9.194-2.87 14.327v123.224c0 5.11.957 9.894 2.87 14.327 1.913 4.433 4.55 8.33 7.933 11.69 3.36 3.36 7.257 5.997 11.69 7.933 4.434 1.914 9.194 2.871 14.327 2.871h7.84c5.11 0 9.894-.957 14.327-2.871 4.433-1.913 8.283-4.55 11.597-7.933 3.313-3.36 5.927-7.257 7.84-11.69 1.913-4.433 2.87-9.193 2.87-14.327V685.611Z"/></svg>